{
  "source": "C:\\Users\\Peter\\Desktop\\stuff\\MIUN\\quantitative_research\\video_compression\\videos\\BVI-HD\\BVI-HD_CDVL_videos\\ORIG\\Grass_1920x1080_60fps.mp4",
  "output": "C:\\Users\\Peter\\Desktop\\stuff\\MIUN\\quantitative_research\\video_compression\\compressed_videos\\BVI-HD\\h264\\3\\Grass_1920x1080_60fps_h264.mp4",
  "codec": "h264",
  "ok": "Input #0, mov,mp4,m4a,3gp,3g2,mj2, from 'C:\\Users\\Peter\\Desktop\\stuff\\MIUN\\quantitative_research\\video_compression\\videos\\BVI-HD\\BVI-HD_CDVL_videos\\ORIG\\Grass_1920x1080_60fps.mp4':\n  Metadata:\n    major_brand     : isom\n    minor_version   : 512\n    compatible_brands: isomiso2avc1mp41\n    encoder         : Lavf54.28.101\n  Duration: 00:00:05.00, start: 0.000000, bitrate: 655968 kb/s\n  Stream #0:0[0x1](und): Video: h264 (High 4:4:4 Predictive) (avc1 / 0x31637661), yuv420p(progressive), 1920x1080, 655963 kb/s, 60 fps, 60 tbr, 60 tbn (default)\n    Metadata:\n      handler_name    : VideoHandler\n      vendor_id       : [0][0][0][0]\n[out#0/mp4 @ 000001e739e67d40] Codec AVOption b:a (set bitrate (in bits/s)) has not been used for any stream. The most likely reason is either wrong type (e.g. a video option with no video streams) or that it is a private option of some decoder which was not actually used for any stream.\nStream mapping:\n  Stream #0:0 -> #0:0 (h264 (native) -> h264 (libx264))\nPress [q] to stop, [?] for help\n[libx264 @ 000001e73aa00ac0] using cpu capabilities: MMX2 SSE2Fast SSSE3 SSE4.2 AVX FMA3 BMI2 AVX2\n[libx264 @ 000001e73aa00ac0] profile High, level 5.0, 4:2:0, 8-bit\n[libx264 @ 000001e73aa00ac0] 264 - core 165 r3222 b35605a - H.264/MPEG-4 AVC codec - Copyleft 2003-2025 - http://www.videolan.org/x264.html - options: cabac=1 ref=5 deblock=1:0:0 analyse=0x3:0x113 me=hex subme=8 psy=1 psy_rd=1.00:0.00 mixed_ref=1 me_range=16 chroma_me=1 trellis=2 8x8dct=1 cqm=0 deadzone=21,11 fast_pskip=1 chroma_qp_offset=-2 threads=18 lookahead_threads=3 sliced_threads=0 nr=0 decimate=1 interlaced=0 bluray_compat=0 constrained_intra=0 bframes=3 b_pyramid=2 b_adapt=1 b_bias=0 direct=3 weightb=1 open_gop=0 weightp=2 keyint=250 keyint_min=25 scenecut=40 intra_refresh=0 rc_lookahead=50 rc=cbr mbtree=1 bitrate=3000 ratetol=1.0 qcomp=0.60 qpmin=0 qpmax=69 qpstep=4 vbv_maxrate=3000 vbv_bufsize=3000 nal_hrd=none filler=0 ip_ratio=1.40 aq=1:1.00\nOutput #0, mp4, to 'C:\\Users\\Peter\\Desktop\\stuff\\MIUN\\quantitative_research\\video_compression\\compressed_videos\\BVI-HD\\h264\\3\\Grass_1920x1080_60fps_h264.mp4':\n  Metadata:\n    major_brand     : isom\n    minor_version   : 512\n    compatible_brands: isomiso2avc1mp41\n    encoder         : Lavf62.3.100\n  Stream #0:0(und): Video: h264 (avc1 / 0x31637661), yuv420p(tv, progressive), 1920x1080, q=2-31, 3000 kb/s, 60 fps, 15360 tbn (default)\n    Metadata:\n      encoder         : Lavc62.11.100 libx264\n      handler_name    : VideoHandler\n      vendor_id       : [0][0][0][0]\n    Side data:\n      cpb: bitrate max/min/avg: 3000000/0/3000000 buffer size: 3000000 vbv_delay: N/A\nframe=    0 fps=0.0 q=0.0 size=       0KiB time=N/A bitrate=N/A speed=N/A elapsed=0:00:00.52    \nframe=    0 fps=0.0 q=0.0 size=       0KiB time=N/A bitrate=N/A speed=N/A elapsed=0:00:01.18    \nframe=    0 fps=0.0 q=0.0 size=       0KiB time=N/A bitrate=N/A speed=N/A elapsed=0:00:01.77    \nframe=    0 fps=0.0 q=0.0 size=       0KiB time=N/A bitrate=N/A speed=N/A elapsed=0:00:02.33    \nframe=   25 fps=8.6 q=41.0 size=       0KiB time=00:00:00.38 bitrate=   1.0kbits/s speed=0.132x elapsed=0:00:02.91    \nframe=   49 fps= 14 q=41.0 size=       0KiB time=00:00:00.78 bitrate=   0.5kbits/s speed=0.224x elapsed=0:00:03.49    \nframe=   74 fps= 18 q=42.0 size=     256KiB time=00:00:01.18 bitrate=1772.6kbits/s speed=0.288x elapsed=0:00:04.11    \nframe=   97 fps= 20 q=41.0 size=     256KiB time=00:00:01.51 bitrate=1383.0kbits/s speed=0.319x elapsed=0:00:04.75    \nframe=  120 fps= 22 q=41.0 size=     512KiB time=00:00:01.88 bitrate=2227.3kbits/s speed=0.352x elapsed=0:00:05.34    \nframe=  142 fps= 24 q=41.0 size=     512KiB time=00:00:02.31 bitrate=1810.7kbits/s speed=0.39x elapsed=0:00:05.93    \nframe=  163 fps= 25 q=41.0 size=     512KiB time=00:00:02.68 bitrate=1563.2kbits/s speed=0.412x elapsed=0:00:06.51    \nframe=  187 fps= 26 q=40.0 size=     768KiB time=00:00:03.03 bitrate=2074.2kbits/s speed=0.43x elapsed=0:00:07.05    \nframe=  208 fps= 27 q=40.0 size=     768KiB time=00:00:03.38 bitrate=1859.7kbits/s speed=0.441x elapsed=0:00:07.67    \nframe=  232 fps= 28 q=40.0 size=     768KiB time=00:00:03.83 bitrate=1641.3kbits/s speed=0.463x elapsed=0:00:08.27    \nframe=  250 fps= 28 q=42.0 size=    1024KiB time=00:00:04.13 bitrate=2029.6kbits/s speed=0.47x elapsed=0:00:08.79    \nframe=  288 fps= 31 q=-1.0 size=    1280KiB time=00:00:04.76 bitrate=2199.9kbits/s speed=0.512x elapsed=0:00:09.31    \n[mp4 @ 000001e739dd9ac0] Starting second pass: moving the moov atom to the beginning of the file\n[out#0/mp4 @ 000001e739e67d40] video:1381KiB audio:0KiB subtitle:0KiB other streams:0KiB global headers:0KiB muxing overhead: 0.316160%\nframe=  300 fps= 32 q=-1.0 Lsize=    1385KiB time=00:00:04.96 bitrate=2285.0kbits/s speed=0.528x elapsed=0:00:09.40    \n[libx264 @ 000001e73aa00ac0] frame I:2     Avg QP:37.31  size:158704\n[libx264 @ 000001e73aa00ac0] frame P:76    Avg QP:39.57  size: 11494\n[libx264 @ 000001e73aa00ac0] frame B:222   Avg QP:44.57  size:  1002\n[libx264 @ 000001e73aa00ac0] consecutive B-frames:  1.3%  0.0%  0.0% 98.7%\n[libx264 @ 000001e73aa00ac0] mb I  I16..4:  0.8% 90.8%  8.4%\n[libx264 @ 000001e73aa00ac0] mb P  I16..4:  0.0%  0.1%  0.0%  P16..4: 21.9%  6.2% 10.3%  0.0%  0.0%    skip:61.5%\n[libx264 @ 000001e73aa00ac0] mb B  I16..4:  0.0%  0.0%  0.0%  B16..8: 15.8%  0.1%  0.0%  direct: 0.0%  skip:84.0%  L0: 9.1% L1:90.8% BI: 0.1%\n[libx264 @ 000001e73aa00ac0] 8x8 transform intra:90.9% inter:73.2%\n[libx264 @ 000001e73aa00ac0] direct mvs  spatial:95.5% temporal:4.5%\n[libx264 @ 000001e73aa00ac0] coded y,uvDC,uvAC intra: 93.5% 97.4% 82.3% inter: 2.2% 3.3% 0.3%\n[libx264 @ 000001e73aa00ac0] i16 v,h,dc,p: 47% 16% 14% 23%\n[libx264 @ 000001e73aa00ac0] i8 v,h,dc,ddl,ddr,vr,hd,vl,hu:  7%  4%  3% 12% 17% 16% 14% 14% 13%\n[libx264 @ 000001e73aa00ac0] i4 v,h,dc,ddl,ddr,vr,hd,vl,hu:  5%  3%  1% 13% 19% 18% 16% 12% 14%\n[libx264 @ 000001e73aa00ac0] i8c dc,h,v,p: 61% 12% 12% 15%\n[libx264 @ 000001e73aa00ac0] Weighted P-Frames: Y:0.0% UV:0.0%\n[libx264 @ 000001e73aa00ac0] ref P L0: 78.4%  5.7%  9.9%  2.0%  4.1%\n[libx264 @ 000001e73aa00ac0] ref B L0: 91.3%  6.2%  1.8%  0.8%\n[libx264 @ 000001e73aa00ac0] ref B L1: 92.8%  7.2%\n[libx264 @ 000001e73aa00ac0] kb/s:2261.44\n",
  "seconds": 9.988706588745117,
  "probe_out": {}
}